<?xml version="1.0" encoding="UTF-8" standalone="no"?>
<!-- Creator: CorelDRAW -->

<svg
   xmlns:dc="http://purl.org/dc/elements/1.1/"
   xmlns:cc="http://creativecommons.org/ns#"
   xmlns:rdf="http://www.w3.org/1999/02/22-rdf-syntax-ns#"
   xmlns:svg="http://www.w3.org/2000/svg"
   xmlns="http://www.w3.org/2000/svg"
   xmlns:sodipodi="http://sodipodi.sourceforge.net/DTD/sodipodi-0.dtd"
   xmlns:inkscape="http://www.inkscape.org/namespaces/inkscape"
   xml:space="preserve"
   width="131.541mm"
   height="62.815201mm"
   style="clip-rule:evenodd;fill-rule:evenodd;image-rendering:optimizeQuality;shape-rendering:geometricPrecision;text-rendering:geometricPrecision"
   viewBox="0 0 131.541 62.815201"
   version="1.1"
   id="svg150"
   sodipodi:docname="car-5.svg"
   inkscape:version="0.92.3 (2405546, 2018-03-11)"><metadata
   id="metadata154"><rdf:RDF><cc:Work
       rdf:about=""><dc:format>image/svg+xml</dc:format><dc:type
         rdf:resource="http://purl.org/dc/dcmitype/StillImage" /><dc:title></dc:title></cc:Work></rdf:RDF></metadata><sodipodi:namedview
   pagecolor="#ffffff"
   bordercolor="#666666"
   borderopacity="1"
   objecttolerance="10"
   gridtolerance="10"
   guidetolerance="10"
   inkscape:pageopacity="0"
   inkscape:pageshadow="2"
   inkscape:window-width="1920"
   inkscape:window-height="1017"
   id="namedview152"
   showgrid="false"
   inkscape:zoom="3.5501447"
   inkscape:cx="248.58142"
   inkscape:cy="118.70589"
   inkscape:window-x="-4"
   inkscape:window-y="9"
   inkscape:window-maximized="1"
   inkscape:current-layer="svg150"
   showborder="false"
   fit-margin-top="0"
   fit-margin-left="0"
   fit-margin-right="0"
   fit-margin-bottom="0" />
 <defs
   id="defs4"><style
     type="text/css"
     id="style2">
   <![CDATA[
    .str1 {stroke:#1F1A17;stroke-width:0.0762}
    .str2 {stroke:#191919;stroke-width:0.0762}
    .str0 {stroke:black;stroke-width:2.8222}
    .fil0 {fill:black}
    .fil10 {fill:blue}
    .fil17 {fill:#333300}
    .fil5 {fill:#333333}
    .fil1 {fill:#666666}
    .fil2 {fill:#6666FF}
    .fil12 {fill:#7F7F7F}
    .fil7 {fill:#990000}
    .fil16 {fill:#B2B2B2}
    .fil18 {fill:#CC9933}
    .fil15 {fill:#CCCC33}
    .fil9 {fill:#CCCCCC}
    .fil6 {fill:#E5E5E5}
    .fil3 {fill:red}
    .fil13 {fill:#FF9933}
    .fil14 {fill:#FF9966}
    .fil8 {fill:yellow}
    .fil11 {fill:#FFFFF2}
    .fil4 {fill:white}
   ]]>
  </style></defs>
 <g
   id="_241897920"
   transform="translate(-70.8599,-228.1836)">
   <path
   style="fill:#000000;stroke:#000000;stroke-width:2.82220006"
   inkscape:connector-curvature="0"
   d="m 188.195,247.964 5.2468,-10.2293 c -0.0357,-0.0298 -0.0709,-0.0601 -0.1056,-0.0909 l -18.197,2.234 -7.1846,18.9017 c -0.4533,1.1928 -1.5602,2.2523 -2.7752,2.4113 0.0165,0.0921 0.0249,0.1871 0.0249,0.2838 v 3.6675 c 0,0.2304 -0.0486,0.4495 -0.1365,0.6482 1.9882,-1.1047 4.2731,-1.7347 6.7009,-1.7347 2.664,0 5.1565,0.7589 7.2731,2.0707 h 4.8898 v -4.062 c -0.4448,-0.0977 -0.8843,-0.2531 -1.3077,-0.4703 -2.6604,-1.3646 -3.7174,-4.6465 -2.3528,-7.3069 0.9811,-1.9127 2.954,-2.9966 4.9739,-2.9473 l 1.9857,-3.8703 z m 8.1905,-18.3693 c 2.5363,0 4.6043,2.0682 4.6043,4.6041 0,2.5363 -2.068,4.6043 -4.6043,4.6043 -0.3312,0 -0.6544,-0.0354 -0.9661,-0.1024 l -5.2663,10.2676 0.8627,0.4425 -2.8793,5.6132 -1.6866,-0.8652 c -0.003,-0.002 -0.007,-0.003 -0.0102,-0.005 -1.4376,-0.7378 -3.2123,-0.1664 -3.9493,1.2716 -0.7379,1.4377 -0.1667,3.2121 1.2714,3.9495 0.056,0.0287 0.1128,0.0551 0.1698,0.0798 v -0.4926 c 0,-0.6052 0.495,-1.1002 1.1002,-1.1002 h 1e-4 c 0.6052,0 1.1002,0.495 1.1002,1.1002 v 0.5462 c 0.6495,-0.2437 1.2151,-0.7156 1.5625,-1.3732 l 2.2193,1.1382 c -0.7922,1.52 -2.2128,2.5099 -3.7818,2.8159 v 4.0374 h 2.7839 c 0.6473,0 1.176,1.0358 1.176,2.302 v 2.7827 h 4.6807 l -0.47,2.3522 h -1.3546 v 0.9966 h 1.8246 l -0.47,2.3522 h -1.569 c -0.5753,2.2071 -2.2451,3.8152 -4.201,3.8152 h -3.2018 l -0.1823,0.8088 h -0.5398 c -0.004,0.0142 -0.008,0.0285 -0.0123,0.0427 h -1.748 c -1.5418,4.6434 -5.9302,8.0087 -11.0798,8.0087 -5.1496,0 -9.5373,-3.3653 -11.0791,-8.0087 h -1.7481 c -0.004,-0.0142 -0.008,-0.0285 -0.0118,-0.0427 h -0.5409 c -0.0375,-0.1383 -0.0731,-0.2776 -0.1064,-0.4175 -0.0333,0.1399 -0.0687,0.2792 -0.1062,0.4175 h -0.5398 c -0.004,0.0142 -0.008,0.0285 -0.0123,0.0427 h -0.9298 -0.4592 -0.359 c -1.5418,4.6434 -5.9302,8.0087 -11.0798,8.0087 -5.1496,0 -9.5373,-3.3653 -11.0791,-8.0087 h -1.7482 c -0.004,-0.0142 -0.008,-0.0285 -0.0118,-0.0427 h -0.5408 -21.795 -0.5398 c -0.004,0.0142 -0.008,0.0285 -0.0123,0.0427 h -1.748 c -1.5418,4.6434 -5.9302,8.0087 -11.0798,8.0087 -5.1496,0 -9.5373,-3.3653 -11.0791,-8.0087 h -1.7481 c -0.0041,-0.0142 -0.0078,-0.0285 -0.0118,-0.0427 h -0.5409 c -0.0723,-0.2665 -0.1367,-0.5364 -0.1933,-0.8088 h -5.2882 c -1.8921,0 -3.5166,-1.5043 -4.1414,-3.6006 -0.306,0.0952 -0.6311,0.1469 -0.9677,0.1469 v -3.2672 -3.2672 c 0.2379,0 0.47,0.0258 0.6937,0.0745 v -6.2597 c 0,-3.0263 1.9869,-5.5023 4.4154,-5.5023 h 15.6207 l 9.6474,-15.1493 h -0.1123 c -0.2696,0 -0.4901,-0.2205 -0.4901,-0.4901 v -0.754 c 0,-0.2696 0.2205,-0.4901 0.4901,-0.4901 h 1.8994 l 1.2621,-3.3038 h 0.1585 v -2.3104 c 0,-1.3376 1.0944,-2.432 2.432,-2.432 v 0 c 1.3376,0 2.432,1.0944 2.432,2.432 v 2.3104 H 111 l 1.2621,3.3038 h 10.4954 c 0.2696,0 0.4901,0.2211 0.4901,0.4901 v 0.754 c 0,0.2685 -0.5041,0.2219 -0.4901,0.4901 l 1.1623,22.224 h 6.1209 c -0.2113,-0.2729 -0.3378,-0.6144 -0.3378,-0.9842 v -3.6675 c 0,-0.0895 0.008,-0.1774 0.0218,-0.2631 h -1.6223 c -1.3361,0 -2.3301,-1.1647 -1.7762,-2.432 l 1.9371,-4.4324 c 0.5539,-1.2673 1.7736,-2.1824 3.0878,-2.432 l 3.2572,-0.6189 c -0.6522,-1.1517 -1.0257,-2.4806 -1.0257,-3.8944 0,-4.3717 3.5654,-7.9371 7.9371,-7.9371 4.3724,0 7.9374,3.5654 7.9374,7.9371 0,0.3688 -0.0259,0.7315 -0.0749,1.0872 l 8.7045,-1.6539 9.11,-15.24 h 25.3954 c 0.8315,-1.2066 2.2227,-2.0004 3.7934,-2.0004 z"
   class="fil0 str0"
   id="_241899552" />
   <g
   id="g146">
    <rect
   style="fill:#7f7f7f;stroke:#191919;stroke-width:0.0762"
   y="0"
   x="0"
   height="17.604"
   width="2.2005"
   transform="rotate(27.154478,-384.99574,521.89157)"
   class="fil12 str2"
   id="_241899480" />
    <path
   style="fill:#b2b2b2;stroke:#1f1a17;stroke-width:0.0762"
   inkscape:connector-curvature="0"
   d="m 189.914,259.273 c -1.3741,2.6368 -4.6404,3.6799 -7.2899,2.3209 -2.6601,-1.3644 -3.7171,-4.6467 -2.3527,-7.3068 0.9811,-1.9126 2.9541,-2.9965 4.9741,-2.9473 l 1.9852,-3.8703 3.7853,1.9417 -2.879,5.6129 -1.6866,-0.8652 c -0.003,-0.002 -0.007,-0.004 -0.0101,-0.005 -1.4379,-0.7375 -3.2123,-0.1662 -3.9498,1.2717 -0.7375,1.4378 -0.1662,3.212 1.2717,3.9496 1.4273,0.7321 3.1857,0.1744 3.9328,-1.2401 z"
   class="fil16 str1"
   id="_241899432" />
    <rect
   style="fill:#cccccc;stroke:#1f1a17;stroke-width:0.0762"
   ry="1.6137"
   rx="1.6137"
   height="6.8948998"
   width="35.5014"
   y="259.86099"
   x="129.703"
   class="fil9 str1"
   id="_241899384" />
    <path
   style="fill:#b2b2b2;stroke:#1f1a17;stroke-width:0.0762"
   inkscape:connector-curvature="0"
   d="m 128.102,261.212 h 36.7644 c 1.3341,0 2.5959,-1.1376 3.0878,-2.432 l 7.1846,-18.9017 21.3845,-2.6253 1.308,-3.2254 c 0.5204,-1.2835 -0.4386,-2.432 -1.7762,-2.432 h -28.8588 l -9.11,15.24 -26.7356,5.08 c -1.3142,0.2496 -2.5339,1.1647 -3.0878,2.432 l -1.9371,4.4324 c -0.5539,1.2673 0.4401,2.432 1.7762,2.432 z"
   class="fil16 str1"
   id="_241899336" />
    <circle
   style="fill:#cccccc;stroke:#1f1a17;stroke-width:0.0762"
   r="7.9373398"
   cy="247.40199"
   cx="141.52"
   class="fil9 str1"
   id="_241899288" />
    <circle
   style="fill:#333300;stroke:#1f1a17;stroke-width:0.0762"
   r="3.90342"
   cy="247.40199"
   cx="141.52"
   class="fil17 str1"
   id="_241899240" />
    <rect
   style="fill:#cccccc;stroke:#1f1a17;stroke-width:0.0762"
   ry="1.1002001"
   rx="1.1002001"
   height="11.1492"
   width="2.2005"
   y="257.862"
   x="183.93201"
   class="fil9 str1"
   id="_241899192" />
    <rect
   style="fill:#cccccc;stroke:#1f1a17;stroke-width:0.0762"
   ry="0.97280002"
   rx="0.97280002"
   height="8.3446999"
   width="67.470001"
   y="266.12701"
   x="122.622"
   class="fil9 str1"
   id="_241899144" />
    <rect
   style="fill:#ff9933;stroke:#1f1a17;stroke-width:0.0762"
   ry="2.4319999"
   rx="2.4319999"
   height="7.296"
   width="4.8639998"
   y="234.12199"
   x="105.856"
   class="fil13 str1"
   id="_241899096" />
    <polygon
   style="fill:#ff9966;stroke:#1f1a17;stroke-width:0.0762"
   points="105.697,238.865 111,238.865 112.301,242.269 104.397,242.269 "
   class="fil14 str1"
   id="_241899048" />
    <rect
   style="fill:#666666;stroke:#1f1a17;stroke-width:0.0762"
   y="0"
   x="0"
   height="2.9435999"
   width="2.8097999"
   transform="matrix(1.12446,0,-0.159656,0.79909,191.613,274.56)"
   class="fil1 str1"
   id="_241899000" />
    <polygon
   style="fill:#666666;stroke:#1f1a17;stroke-width:0.0762"
   points="181.453,271.211 194.773,271.211 194.303,273.563 180.983,273.563 "
   class="fil1 str1"
   id="_241898952" />
    <polygon
   style="fill:#6666ff;stroke:#1f1a17;stroke-width:0.0762"
   points="121.85,262.594 90.7448,262.594 103.445,242.651 121.85,242.651 "
   class="fil2 str1"
   id="_241898904" />
    <path
   style="fill:#ff0000;stroke:#1f1a17;stroke-width:0.0762"
   inkscape:connector-curvature="0"
   d="m 102.536,242.168 h 20.2216 c 0.2696,0 0.4901,0.2211 0.4901,0.4901 v 0.754 c 0,0.2685 -0.5041,0.2219 -0.4901,0.4901 l 1.5824,30.2577 -8.5073,-0.3868 1.3244,-29.8709 H 102.536 c -0.2696,0 -0.4901,-0.2205 -0.4901,-0.4901 v -0.754 c 0,-0.2696 0.2205,-0.4901 0.4901,-0.4901 z"
   class="fil3 str1"
   id="_241898856" />
    <path
   style="fill:#cc9933;stroke:#1f1a17;stroke-width:0.0762"
   inkscape:connector-curvature="0"
   d="m 77.38,259.052 h 40.0326 c 1.2142,0 2.3192,0.6203 3.1183,1.6165 0.7993,0.9964 1.2971,2.3753 1.2971,3.8858 v 7.4871 l 71.12,-0.17 v 3.3539 c 0,3.0255 -1.9877,5.5023 -4.4154,5.5023 H 77.3796 c -2.4277,0 -4.4154,-2.476 -4.4154,-5.5023 v -10.671 c 0,-3.0263 1.9869,-5.5023 4.4154,-5.5023 z"
   class="fil18 str1"
   id="_241898808" />
    <path
   style="fill:#ffffff"
   inkscape:connector-curvature="0"
   d="m 109.582,277.918 c 0,1.2689 -0.1787,2.4972 -0.5123,3.6614 h -25.655 c -0.3336,-1.1642 -0.5129,-2.3924 -0.5129,-3.6612 -10e-5,-7.3469 5.9933,-13.3404 13.34,-13.3402 7.3469,-10e-5 13.3404,5.9933 13.3402,13.34 z"
   class="fil4"
   id="_241898736" />
    <circle
   style="fill:#333333;stroke:#1f1a17;stroke-width:0.0762"
   r="11.67"
   cy="277.918"
   cx="96.241402"
   class="fil5 str1"
   id="_241898688" />
    <circle
   style="fill:#e5e5e5;stroke:#1f1a17;stroke-width:0.0762"
   r="5.4825702"
   cy="279.40399"
   cx="97.728203"
   class="fil6 str1"
   id="_241898640" />
    <circle
   style="fill:#ff0000;stroke:#1f1a17;stroke-width:0.0762"
   r="2.2713499"
   cy="277.918"
   cx="96.241402"
   class="fil3 str1"
   id="_241898592" />
    <path
   style="fill:#ffffff"
   inkscape:connector-curvature="0"
   d="m 158.136,277.918 c 0,1.269 -0.1787,2.4971 -0.5124,3.6613 h -0.9298 -0.4592 -24.2661 c -0.3336,-1.1642 -0.5129,-2.3924 -0.5129,-3.6613 0,-7.3468 5.9934,-13.3402 13.3402,-13.3402 7.3468,0 13.3402,5.9934 13.3402,13.3402 z"
   class="fil4"
   id="_241898520" />
    <circle
   style="fill:#333333;stroke:#1f1a17;stroke-width:0.0762"
   r="11.67"
   cy="277.918"
   cx="144.79601"
   class="fil5 str1"
   id="_241898472" />
    <circle
   style="fill:#e5e5e5;stroke:#1f1a17;stroke-width:0.0762"
   r="5.4825702"
   cy="279.40399"
   cx="146.283"
   class="fil6 str1"
   id="_241898424" />
    <circle
   style="fill:#ff0000;stroke:#1f1a17;stroke-width:0.0762"
   r="2.2713499"
   cy="277.918"
   cx="144.79601"
   class="fil3 str1"
   id="_241898376" />
    <path
   style="fill:#ffff00;stroke:#1f1a17;stroke-width:0.0762"
   inkscape:connector-curvature="0"
   d="m 72.2709,274.007 v 3.2672 c 1.8041,0 3.2672,-1.4631 3.2672,-3.2672 0,-1.8041 -1.4631,-3.2672 -3.2672,-3.2672 z"
   class="fil8 str1"
   id="_241898328" />
    <path
   style="fill:#ffffff"
   inkscape:connector-curvature="0"
   d="m 185.109,277.918 c 0,1.2689 -0.1787,2.4972 -0.5123,3.6614 h -25.655 c -0.3336,-1.1642 -0.5129,-2.3924 -0.5129,-3.6612 -1e-4,-7.3469 5.9933,-13.3404 13.34,-13.3402 7.3469,-10e-5 13.3404,5.9933 13.3402,13.34 z"
   class="fil4"
   id="_241898256" />
    <circle
   style="fill:#333333;stroke:#1f1a17;stroke-width:0.0762"
   r="11.67"
   cy="277.918"
   cx="171.769"
   class="fil5 str1"
   id="_241898208" />
    <circle
   style="fill:#e5e5e5;stroke:#1f1a17;stroke-width:0.0762"
   r="5.4825702"
   cy="279.40399"
   cx="173.255"
   class="fil6 str1"
   id="_241898160" />
    <circle
   style="fill:#ff0000;stroke:#1f1a17;stroke-width:0.0762"
   r="2.2713499"
   cy="277.918"
   cx="171.769"
   class="fil3 str1"
   id="_241898112" />
    <path
   style="fill:#ff0000;stroke:#1f1a17;stroke-width:0.0762"
   inkscape:connector-curvature="0"
   d="m 144.796,264.056 c 6.5319,0 12.0334,4.5592 13.486,10.6577 1.4526,-6.0985 6.9545,-10.6577 13.4864,-10.6577 7.6341,0 13.8618,6.2277 13.8618,13.8618 0,0.8388 -0.0761,1.6599 -0.2204,2.4581 l -0.2615,1.1605 h -1.3513 c 0.3465,-1.1469 0.534,-2.3614 0.534,-3.6186 0,-6.9186 -5.644,-12.5626 -12.5626,-12.5626 -6.9186,0 -12.5626,5.644 -12.5626,12.5626 0,1.2572 0.1875,2.4717 0.534,3.6186 h -1.3513 c -0.0375,-0.1383 -0.0731,-0.2776 -0.1064,-0.4175 -0.0333,0.1399 -0.0687,0.2792 -0.1062,0.4175 h -1.3513 c 0.3465,-1.1469 0.534,-2.3614 0.534,-3.6186 0,-6.9186 -5.644,-12.5626 -12.5626,-12.5626 -6.9186,0 -12.5626,5.644 -12.5626,12.5626 0,1.2572 0.1875,2.4717 0.534,3.6186 h -0.7559 -0.5954 -21.795 -1.3513 c 0.3465,-1.1469 0.534,-2.3614 0.534,-3.6186 0,-6.9186 -5.644,-12.5626 -12.5626,-12.5626 -6.9186,0 -12.5626,5.644 -12.5626,12.5626 0,1.2572 0.1875,2.4717 0.534,3.6186 h -1.3513 c -0.3134,-1.1545 -0.4819,-2.3673 -0.4819,-3.6186 0,-7.6341 6.2277,-13.8618 13.8618,-13.8618 7.6341,0 13.8618,6.2277 13.8618,13.8618 0,0.8388 -0.0761,1.6599 -0.2204,2.4581 h 21.272 c -0.1443,-0.7982 -0.2204,-1.6193 -0.2204,-2.4581 0,-7.6341 6.2277,-13.8618 13.8618,-13.8618 z"
   class="fil3 str1"
   id="_241898064" />
    <circle
   style="fill:#cccccc;stroke:#1f1a17;stroke-width:0.0762"
   r="4.60427"
   cy="234.19901"
   cx="196.38499"
   class="fil9 str1"
   id="_241898016" />
    <circle
   style="fill:#333300;stroke:#1f1a17;stroke-width:0.0762"
   r="2.2642801"
   cy="234.19901"
   cx="196.38499"
   class="fil17 str1"
   id="_241897968" />
   </g>
  </g>
</svg>